<svg xmlns="http://www.w3.org/2000/svg" width="370" height="75" viewBox="0 0 370 75">
    <g fill="none" fill-rule="evenodd">
        <path fill="#FFF" d="M89.185 36.913h-6.69v13.442l6.69.028c3.665 0 6.717-3.076 6.717-6.72 0-3.642-3.066-6.75-6.717-6.75zm-15.646 22.32V28.035h15.646c4.33 0 8.016 1.521 11.057 4.564 3.077 3.06 4.617 6.748 4.617 11.063 0 4.352-1.54 8.02-4.617 11.008-3.077 3.042-6.764 4.563-11.057 4.563h-6.69V72.62h-8.956V59.233zM131.42 40.702c-2.655 2.693-3.981 5.892-3.981 9.598 0 3.743 1.326 6.942 3.98 9.597 2.636 2.637 5.833 3.955 9.592 3.955 3.705 0 6.893-1.318 9.565-3.955 2.672-2.636 4.008-5.836 4.008-9.597 0-3.725-1.336-6.924-4.008-9.598-2.654-2.655-5.842-3.982-9.565-3.982-3.778 0-6.975 1.327-9.592 3.982m25.57-6.36c4.442 4.443 6.662 9.781 6.662 16.013 0 6.251-2.22 11.58-6.662 15.987-4.423 4.387-9.749 6.582-15.977 6.582-6.248-.018-11.574-2.213-15.978-6.582-4.423-4.426-6.635-9.755-6.635-15.987 0-6.214 2.212-11.552 6.635-16.014 4.441-4.443 9.767-6.665 15.978-6.665 6.21 0 11.536 2.222 15.977 6.665M194.443 36.913h-6.69v13.442l6.69.028c3.666 0 6.717-3.076 6.717-6.72 0-3.642-3.066-6.75-6.717-6.75zm-15.646 22.32V28.035h15.646c4.331 0 8.017 1.521 11.057 4.564 3.078 3.06 4.617 6.748 4.617 11.063 0 4.352-1.539 8.02-4.617 11.008-3.077 3.042-6.763 4.563-11.057 4.563h-6.69V72.62h-8.956V59.233zM240.962 36.913h-6.69v13.442l6.69.028c3.666 0 6.717-3.076 6.717-6.72 0-3.642-3.066-6.75-6.717-6.75zm-15.646 22.32V28.035h15.646c4.33 0 8.016 1.521 11.057 4.564 3.078 3.06 4.617 6.748 4.617 11.063 0 4.352-1.54 8.02-4.617 11.008-3.077 3.042-6.763 4.563-11.057 4.563h-6.69V72.62h-8.956V59.233zM271.835 72.62h8.957V28.035h-8.957zM324.516 27.925v8.933h-17.913v8.99h13.435v8.933h-13.435v8.988h17.913v8.906h-26.87v-44.75zM352.232 64.455c2.474 0 5.204-2.055 5.204-4.53 0-4.07-5.46-4.638-8.542-5.706-5.433-1.853-10.231-6.315-10.231-12.387 0-7.519 6.095-13.577 13.61-13.577 6.852 0 12.53 5.084 13.448 11.697l-8.893 1.88c0-2.448-2.055-4.503-4.501-4.503-2.487 0-4.541 2.055-4.541 4.53 0 4.016 5.082 5.084 8.177 6.004 5.622 1.622 10.582 5.91 10.582 12.116 0 7.52-6.744 13.591-14.245 13.591-6.893 0-13.123-5.057-14.137-11.698l8.893-1.893c0 2.489 2.703 4.517 5.216 4.517l-.04-.04z"/>
        <path fill="#E5592E" d="M92.233 36.913h-6.69v13.442l6.69.028c3.665 0 6.717-3.076 6.717-6.72 0-3.642-3.066-6.75-6.717-6.75zm-15.646 22.32V28.035h15.646c4.33 0 8.016 1.521 11.057 4.564 3.077 3.06 4.617 6.748 4.617 11.063 0 4.352-1.54 8.02-4.617 11.008-3.077 3.042-6.763 4.563-11.057 4.563h-6.69V72.62h-8.956V59.233zM134.467 40.702c-2.654 2.693-3.98 5.892-3.98 9.598 0 3.743 1.326 6.942 3.98 9.597 2.636 2.637 5.833 3.955 9.592 3.955 3.705 0 6.893-1.318 9.565-3.955 2.672-2.636 4.008-5.836 4.008-9.597 0-3.725-1.336-6.924-4.008-9.598-2.654-2.655-5.842-3.982-9.565-3.982-3.778 0-6.975 1.327-9.592 3.982m25.57-6.36c4.442 4.443 6.662 9.781 6.662 16.013 0 6.251-2.22 11.58-6.661 15.987-4.424 4.387-9.75 6.582-15.978 6.582-6.248-.018-11.574-2.213-15.978-6.582-4.423-4.426-6.635-9.755-6.635-15.987 0-6.214 2.212-11.552 6.635-16.014 4.441-4.443 9.768-6.665 15.978-6.665 6.21 0 11.536 2.222 15.978 6.665"/>
        <path fill="#E45A2E" d="M197.491 36.913h-6.69v13.442l6.69.028c3.666 0 6.717-3.076 6.717-6.72 0-3.642-3.066-6.75-6.717-6.75zm-15.646 22.32V28.035h15.646c4.331 0 8.017 1.521 11.057 4.564 3.078 3.06 4.617 6.748 4.617 11.063 0 4.352-1.539 8.02-4.617 11.008-3.077 3.042-6.763 4.563-11.057 4.563h-6.69V72.62h-8.956V59.233z"/>
        <path fill="#E5592E" d="M244.01 36.913h-6.69v13.442l6.69.028c3.666 0 6.718-3.076 6.718-6.72 0-3.642-3.066-6.75-6.718-6.75zm-15.646 22.32V28.035h15.646c4.33 0 8.017 1.521 11.058 4.564 3.077 3.06 4.616 6.748 4.616 11.063 0 4.352-1.539 8.02-4.616 11.008-3.078 3.042-6.764 4.563-11.058 4.563h-6.69V72.62h-8.956V59.233zM274.884 72.62h8.956V28.035h-8.956zM327.564 27.925v8.933h-17.913v8.99h13.435v8.933H309.65v8.988h17.913v8.906h-26.87v-44.75zM355.18 63.843c2.475 0 5.205-2.056 5.205-4.53 0-4.07-5.46-4.639-8.542-5.707-5.434-1.853-10.232-6.315-10.232-12.387 0-7.518 6.096-13.577 13.61-13.577 6.853 0 12.53 5.085 13.448 11.697l-8.893 1.88c0-2.447-2.054-4.503-4.5-4.503-2.487 0-4.542 2.056-4.542 4.53 0 4.017 5.083 5.085 8.177 6.004 5.623 1.623 10.583 5.91 10.583 12.117 0 7.518-6.745 13.59-14.245 13.59-6.894 0-13.124-5.058-14.138-11.697l8.893-1.893c0 2.488 2.704 4.517 5.217 4.517l-.04-.041z"/>
        <path fill="#3E465B" d="M13.06 38.271c.102.152.2.305.3.455.013-.012.029-.026.042-.04l-.258-.804c.022-.019.045-.037.063-.056.122.156.236.322.368.463.065.07.159.094.241.135.028.016.07.007.09.034.183.233.358.475.542.705.148.184.339.322.45.538.181.358.437.559.678.813.148.155.294.383.42.595.277.473.517.987.782 1.471.1.176.215.352.352.468.319.274.43.777.697 1.105.284.357.402.901.74 1.212.095.087.118.307.197.439.129.207.281.386.412.59.064.1.096.232.156.339.114.208.242.402.355.612.26.48.51.976.778 1.45.175.316.39.594.57.908.263.47.502.97.77 1.435.223.38.487.723.718 1.094.378.603.747 1.216 1.12 1.824.236.389.478.772.707 1.17.24.42.458.86.696 1.283.21.378.435.74.645 1.118.312.567.623 1.14.924 1.72.275.535.537 1.082.8 1.63.102.21.177.442.274.655.048.105.13.178.177.28.352.758.693 1.522 1.048 2.276.26.554.567 1.075.796 1.654.323.817.78 1.502 1.147 2.275l.232.49c.058-.268.11-.448.083-.699a84.706 84.706 0 0 1-.335-3.448c-.09-1.12-.143-2.245-.211-3.365-.054-.88-.116-1.76-.16-2.64-.037-.624-.047-1.254-.064-1.88-.015-.537-.02-1.073-.037-1.61-.028-1.002-.055-2.007-.093-3.009-.014-.353-.063-.706-.078-1.06-.014-.39-.002-.784-.014-1.174-.016-.516-.053-1.033-.065-1.552a55.937 55.937 0 0 1-.012-1.708c.003-.241.09-.5.046-.718-.108-.573-.043-1.145-.054-1.716a33.313 33.313 0 0 1 0-1.509c.011-.352.062-.701.09-1.053.004-.041-.015-.085-.017-.13-.016-.315-.036-.63-.041-.945-.002-.312.01-.626.026-.938.013-.3-.023-.636.064-.887.144-.404-.044-.77.016-1.157.047-.326-.002-.675.012-1.014.02-.547.056-1.095.083-1.642.003-.03.023-.056.062-.166.018.225.027.368.042.541.121-.33.1-.508-.078-.623.31-.158.154-.515.193-.789.022-.17-.016-.353-.008-.53.015-.416.038-.831.065-1.246.034-.506.078-1.012.117-1.518.008-.107.009-.212.013-.318.022-.474.042-.947.065-1.42.001-.067.029-.131.038-.196.006-.05.018-.112.001-.148-.027-.058-.076-.1-.114-.148.052-.048.11-.092.157-.146.017-.02.026-.062.028-.095.04-.51.077-1.023.122-1.533.035-.397.084-.791.121-1.187.068-.69.128-1.38.197-2.069.014-.142.065-.277.08-.419.018-.178.007-.364.026-.543.045-.378.105-.753.153-1.131.033-.259.063-.52.084-.78a.348.348 0 0 0-.044-.205c-.153-.212-.072-.4.045-.592-.008.117-.016.232-.021.347l.035.017c.022-.066.057-.13.067-.2.063-.487.118-.98.18-1.47.063-.482.122-.965.19-1.446.018-.132.054-.26.094-.383.005-.018.093-.02.115.009.031.04.053.129.042.178-.053.207.058.396-.005.624-.048.178.025.42.048.678.076-.089.123-.143.2-.23-.02.27-.054.494-.049.716.004.24.048.477.077.714.005.071.014.143.016.213.004.253-.007.509.012.76.021.275-.012.549.109.821.066.142-.009.4-.027.607-.012.177-.032.353-.044.531-.014.219-.111.212-.231.172.057.028.118.053.147.067.023.208.064.4.06.59.002.202-.05.403-.068.608-.041.483-.078.965-.117 1.45-.002.025-.025.06-.021.073.25.582.021 1.176.017 1.762-.006.28-.032.559-.054.836-.011.16-.068.327-.053.48.041.384-.053.754.002 1.155.046.35.072.777-.1 1.14-.047.096-.022.258-.019.39.01.378.027.754.036 1.132.005.145-.002.29-.01.437-.026.697-.06 1.393-.082 2.093-.014.449-.006.9-.023 1.349-.014.385-.055.769-.07 1.155-.024.51-.01 1.03-.063 1.535-.047.439.107.895-.078 1.326-.033.074.07.24.064.36-.014.333-.068.663-.078.996-.006.22.05.44.059.663.007.214-.02.432-.027.648-.004.222-.016.447.003.667.045.442.05.876-.047 1.307.15.217.017.478.057.711.005.027.024.06.017.076-.08.209-.015.414-.008.626.03.768.022 1.536.042 2.304.016.624.046 1.25.068 1.873.035.964.078 1.93.104 2.895.013.481-.012.963-.003 1.446.015.72.048 1.441.071 2.161.028.784.049 1.567.083 2.349.028.66.073 1.319.102 1.98.018.39.015.78.04 1.165.045.705.106 1.409.16 2.111.05.617.098 1.232.15 1.847.043.517.092 1.03.143 1.547.012.114.048.225.053.337.004.145-.012.29-.02.432.009.01.04.034.07.06l-.126.26c.015.1.044.273.073.447h.038c-.005-.125-.01-.248-.015-.321.075-.117.154-.194.185-.296.223-.763.435-1.535.65-2.302.29-1.017.562-2.043.875-3.048.239-.77.532-1.511.806-2.265.358-.99.71-1.99 1.092-2.964.358-.916.762-1.8 1.138-2.703.255-.612.488-1.238.748-1.848.238-.57.496-1.13.754-1.687.216-.468.448-.926.668-1.39.338-.713.668-1.434 1.014-2.14.41-.832.835-1.654 1.256-2.479.349-.687.692-1.376 1.052-2.053.332-.625.675-1.241 1.017-1.857a767.835 767.835 0 0 1 1.886-3.368c.307-.542.628-1.074.926-1.623.44-.806.863-1.634 1.31-2.434.281-.505.597-.972.892-1.464.057-.09.084-.21.136-.303.3-.521.614-1.029.902-1.558.466-.849.903-1.726 1.384-2.557.106-.182.162-.415.31-.561.148-.146.279-.324.454-.532-.033.188-.043.325-.08.446-.038.127-.075.207.048.308.038.034.012.282-.03.406-.05.147-.137.255-.017.423.033.045.006.19-.013.278-.029.135-.082.262-.122.392-.093.31-.187.617-.273.93-.027.093-.015.204-.043.294a9.19 9.19 0 0 1-.195.564c-.065.174-.123.357-.205.515-.23.434-.48.851-.701 1.291-.11.218-.164.484-.266.707-.145.313-.323.6-.471.912-.152.318-.279.658-.43.976-.233.496-.47.993-.727 1.468-.42.78-.86 1.543-1.291 2.312-.549.979-1.104 1.953-1.648 2.936-.305.552-.596 1.12-.899 1.678-.269.503-.554.993-.821 1.502-.397.76-.786 1.532-1.18 2.299-.44.86-.904 1.701-1.32 2.585-.416.889-.779 1.824-1.173 2.731-.313.72-.644 1.43-.963 2.147-.248.553-.497 1.102-.731 1.66a152.34 152.34 0 0 0-1.135 2.738c-.277.696-.539 1.408-.802 2.116-.078.21-.136.434-.215.642-.12.317-.267.612-.373.935a69.55 69.55 0 0 0-1.011 3.365c-.145.53-.273 1.065-.42 1.594-.068.234-.166.453-.24.683-.298.933-.59 1.87-.895 2.799-.075.226-.16.45-.267.649a1.944 1.944 0 0 0-.23.994c0 .035 0 .069-.009.098-.007.018-.036.019-.046.028.031.05.06.103.09.156-.04.032-.08.066-.12.092-.049.03-.113.037-.146.086-.128.194-.244.4-.368.602a1.62 1.62 0 0 0-.044-.108c-.096-.003-.19.01-.284-.001-.232-.026-.468-.04-.696-.1-.105-.028-.21-.139-.285-.25-.141-.207-.262-.44-.385-.667a12.424 12.424 0 0 1-.321-.645c-.238-.508-.473-1.016-.703-1.525-.116-.26-.214-.533-.334-.789-.196-.42-.406-.831-.608-1.247-.204-.41-.405-.821-.608-1.231-.095-.19-.186-.38-.28-.572-.2-.411-.397-.825-.598-1.236-.221-.456-.453-.908-.674-1.366-.315-.644-.631-1.285-.935-1.94-.306-.665-.588-1.354-.899-2.015-.34-.721-.7-1.424-1.055-2.129-.112-.223-.246-.425-.359-.647-.051-.102-.07-.237-.117-.399h-.058c-.089-.143-.178-.278-.258-.422-.274-.482-.541-.974-.82-1.45-.37-.63-.75-1.246-1.126-1.87-.442-.732-.885-1.462-1.32-2.202-.254-.433-.49-.884-.74-1.324-.245-.431-.495-.856-.737-1.29-.064-.113-.103-.249-.157-.372a.357.357 0 0 0-.062-.114c-.073-.092-.158-.168-.22-.271a34.547 34.547 0 0 1-.662-1.195c-.27-.513-.524-1.04-.792-1.554-.168-.317-.352-.616-.52-.932-.28-.529-.556-1.063-.833-1.596-.248-.484-.5-.963-.741-1.454a115.575 115.575 0 0 1-1.471-3.134c-.033-.07-.048-.154-.072-.232a.276.276 0 0 0 .04-.03M54.224 13.66c.083-.02.181-.02.246-.065.309-.222.665-.2 1.013-.223.249-.017.492-.068.739-.083.24-.014.484 0 .723-.001.065.001.137.014.194-.005.491-.175.968-.077 1.45.052.478.126.88.388 1.292.636.21.126.428.24.603.401.208.19.386.412.552.638.307.418.616.837.89 1.274.25.397.488.809.673 1.237.15.353.214.743.323 1.115.033.116.083.225.117.34.096.325.229.646.268.977.044.332.072.665.021 1.015-.037.259.01.544-.041.821-.052.266-.033.546-.093.81a6.044 6.044 0 0 1-.298.934c-.11.263-.234.529-.405.754-.21.28-.451.555-.728.765-.7.534-1.428 1.029-2.146 1.538a.22.22 0 0 1-.07.038c-.387.123-.77.248-1.156.362-.065.02-.147-.026-.222-.026a.362.362 0 0 0-.15.04c-.344.163-.708.206-1.083.223-.285.013-.573.048-.861.052-.123.004-.243-.05-.366-.07-.114-.017-.24 0-.344-.037-.531-.194-1.067-.374-1.488-.783a5.049 5.049 0 0 0-.65-.524c-.566-.376-1.084-.795-1.484-1.354-.356-.498-.746-.97-1.098-1.47a6.897 6.897 0 0 1-.632-1.05 2.476 2.476 0 0 1-.225-1.133c.006-.152-.084-.306-.114-.462a1.244 1.244 0 0 1-.033-.42c.05-.321.13-.638.185-.96.015-.09-.016-.186-.01-.279.009-.138.006-.284.053-.411.247-.684.416-1.404.818-2.025.246-.376.489-.758.781-1.096.31-.361.674-.677 1.02-1.007.04-.038.109-.047.163-.065.383-.127.769-.251 1.152-.38.134-.044.267-.095.403-.144.005.017.01.035.018.052M38.696 5.271c.04.138.09.272.112.41.043.225.066.453.107.677.042.244.052.506.155.723.152.32.09.637.093.963.004.593-.197 1.14-.355 1.69-.082.287-.317.53-.486.794-.055.087-.104.188-.18.255-.424.36-.74.837-1.233 1.118-.211.119-.458.215-.61.389a1.262 1.262 0 0 1-.664.385c-.645.164-1.299.342-1.96.407-.622.059-1.263.016-1.886-.053-.442-.05-.88-.194-1.303-.342-.441-.153-.864-.353-1.188-.726-.154-.174-.408-.256-.583-.417-.467-.425-.945-.84-1.228-1.426-.027-.05-.092-.08-.125-.128-.11-.155-.215-.312-.318-.472-.135-.215-.236-.461-.407-.646-.24-.263-.262-.587-.34-.9-.063-.241-.134-.481-.181-.726a1.983 1.983 0 0 1-.031-.426c.014-.395.065-.79.055-1.183-.01-.376.157-.71.195-1.068v-.02c.198-.36.247-.775.42-1.137.16-.33.407-.618.586-.94.19-.342.49-.563.781-.798.094-.074.196-.141.304-.192.111-.056.241-.064.28-.224.01-.05.114-.087.182-.112.245-.087.49-.171.737-.25.068-.022.148-.014.216-.03.375-.094.746-.197 1.123-.28.227-.05.462-.075.698-.103.327-.04.653-.086.987-.107.268-.018.544.04.804-.004.347-.056.638.076.934.178.254.09.501.207.736.34.275.16.538.342.79.535.242.187.48.386.69.607.289.305.573.62.813.965.25.357.45.749.66 1.133.097.172.16.36.26.53.09.156.204.297.308.444l.1.146c-.016.007-.03.015-.048.021M1.858 26.34c.07-.108.115-.234.307-.235.042 0 .085-.06.12-.096.379-.402.75-.806 1.242-1.082.244-.136.493-.191.759-.245.184-.036.351-.156.532-.211.71-.214 1.43-.386 2.175-.359.598.02 1.169.162 1.71.4.55.24 1.088.503 1.629.765.29.144.586.293.86.468.14.092.246.242.356.374.268.327.566.636.785.993.225.366.404.77.545 1.178.21.598.193 1.236.235 1.861.001.027.01.062-.004.08-.234.305-.126.68-.205 1.016-.099.408-.168.824-.286 1.227-.12.416-.27.82-.435 1.22-.051.13-.175.233-.268.345-.115.14-.263.264-.345.423-.2.388-.597.544-.889.824-.36.347-.842.343-1.257.52-.272.118-.54.249-.817.344-.32.108-.651.184-.978.274-.16.042-.319.112-.48.118-.305.01-.621.038-.905-.041-.308-.087-.63-.025-.925-.145-.298-.12-.599-.234-.893-.357a33.877 33.877 0 0 1-1.048-.456 1.433 1.433 0 0 1-.264-.174c-.32-.25-.674-.468-.95-.76-.384-.404-.756-.83-.992-1.345-.156-.331-.337-.66-.422-1.012-.097-.4-.247-.817-.08-1.244a.127.127 0 0 0 .005-.08c-.1-.383-.081-.765-.002-1.149.088-.446.162-.897.275-1.337.095-.358.233-.706.367-1.054.117-.306.248-.606.384-.905.027-.06.102-.096.16-.144"/>
    </g>
</svg>
